<?xml version="1.0" encoding="UTF-8" standalone="no"?>
<!-- Created with Inkscape (http://www.inkscape.org/) -->

<svg
   xmlns:dc="http://purl.org/dc/elements/1.1/"
   xmlns:cc="http://creativecommons.org/ns#"
   xmlns:rdf="http://www.w3.org/1999/02/22-rdf-syntax-ns#"
   xmlns:svg="http://www.w3.org/2000/svg"
   xmlns="http://www.w3.org/2000/svg"
   xmlns:xlink="http://www.w3.org/1999/xlink"
   xmlns:sodipodi="http://sodipodi.sourceforge.net/DTD/sodipodi-0.dtd"
   xmlns:inkscape="http://www.inkscape.org/namespaces/inkscape"
   width="30mm"
   height="30mm"
   viewBox="0 0 106.29921 106.29921"
   id="svg2"
   version="1.1"
   inkscape:version="0.91 r13725"
   sodipodi:docname="Rakete-lineart.svg">
  <title
     id="title4136">rocket - lineart</title>
  <defs
     id="defs4">
    <pattern
       inkscape:collect="always"
       xlink:href="#Polkadots-large"
       id="pattern6039"
       patternTransform="matrix(0.87499999,0,0,0.92499999,16,956)" />
    <pattern
       inkscape:collect="always"
       xlink:href="#Polkadots-large"
       id="pattern5947"
       patternTransform="matrix(0.84999999,0,0,1.05,12,956)" />
    <pattern
       inkscape:collect="always"
       xlink:href="#Strips1_1"
       id="pattern5855"
       patternTransform="matrix(0.52499998,0.69999999,-1.9,1.425,16,948)" />
    <pattern
       inkscape:isstock="true"
       inkscape:stockid="Stripes 1:1"
       id="Strips1_1"
       patternTransform="translate(0,0) scale(10,10)"
       height="1"
       width="2"
       patternUnits="userSpaceOnUse"
       inkscape:collect="always">
      <rect
         id="rect5001"
         height="2"
         width="1"
         y="-0.5"
         x="0"
         style="fill:black;stroke:none" />
    </pattern>
    <pattern
       inkscape:collect="always"
       xlink:href="#Polkadots-large"
       id="pattern5761"
       patternTransform="matrix(0.79999999,0,0,0.92499999,2.8284271,950.35151)" />
    <pattern
       inkscape:stockid="Polka dots, large"
       id="Polkadots-large"
       patternTransform="translate(0,0) scale(10,10)"
       height="10"
       width="10"
       patternUnits="userSpaceOnUse"
       inkscape:collect="always">
      <circle
         id="circle5451"
         r="0.45"
         cy="0.810"
         cx="2.567"
         style="fill:black;stroke:none" />
      <circle
         id="circle5453"
         r="0.45"
         cy="2.33"
         cx="3.048"
         style="fill:black;stroke:none" />
      <circle
         id="circle5455"
         r="0.45"
         cy="2.415"
         cx="4.418"
         style="fill:black;stroke:none" />
      <circle
         id="circle5457"
         r="0.45"
         cy="3.029"
         cx="1.844"
         style="fill:black;stroke:none" />
      <circle
         id="circle5459"
         r="0.45"
         cy="1.363"
         cx="6.08"
         style="fill:black;stroke:none" />
      <circle
         id="circle5461"
         r="0.45"
         cy="4.413"
         cx="5.819"
         style="fill:black;stroke:none" />
      <circle
         id="circle5463"
         r="0.45"
         cy="4.048"
         cx="4.305"
         style="fill:black;stroke:none" />
      <circle
         id="circle5465"
         r="0.45"
         cy="3.045"
         cx="5.541"
         style="fill:black;stroke:none" />
      <circle
         id="circle5467"
         r="0.45"
         cy="5.527"
         cx="4.785"
         style="fill:black;stroke:none" />
      <circle
         id="circle5469"
         r="0.45"
         cy="5.184"
         cx="2.667"
         style="fill:black;stroke:none" />
      <circle
         id="circle5471"
         r="0.45"
         cy="1.448"
         cx="7.965"
         style="fill:black;stroke:none" />
      <circle
         id="circle5473"
         r="0.45"
         cy="5.049"
         cx="7.047"
         style="fill:black;stroke:none" />
      <circle
         id="circle5475"
         r="0.45"
         cy="0.895"
         cx="4.340"
         style="fill:black;stroke:none" />
      <circle
         id="circle5477"
         r="0.45"
         cy="0.340"
         cx="7.125"
         style="fill:black;stroke:none" />
      <circle
         id="circle5479"
         r="0.45"
         cy="1.049"
         cx="9.553"
         style="fill:black;stroke:none" />
      <circle
         id="circle5481"
         r="0.45"
         cy="2.689"
         cx="7.006"
         style="fill:black;stroke:none" />
      <circle
         id="circle5483"
         r="0.45"
         cy="2.689"
         cx="8.909"
         style="fill:black;stroke:none" />
      <circle
         id="circle5485"
         r="0.45"
         cy="4.407"
         cx="9.315"
         style="fill:black;stroke:none" />
      <circle
         id="circle5487"
         r="0.45"
         cy="3.870"
         cx="7.820"
         style="fill:black;stroke:none" />
      <circle
         id="circle5489"
         r="0.45"
         cy="5.948"
         cx="8.270"
         style="fill:black;stroke:none" />
      <circle
         id="circle5491"
         r="0.45"
         cy="7.428"
         cx="7.973"
         style="fill:black;stroke:none" />
      <circle
         id="circle5493"
         r="0.45"
         cy="8.072"
         cx="9.342"
         style="fill:black;stroke:none" />
      <circle
         id="circle5495"
         r="0.45"
         cy="9.315"
         cx="8.206"
         style="fill:black;stroke:none" />
      <circle
         id="circle5497"
         r="0.45"
         cy="9.475"
         cx="9.682"
         style="fill:black;stroke:none" />
      <circle
         id="circle5499"
         r="0.45"
         cy="6.186"
         cx="9.688"
         style="fill:black;stroke:none" />
      <circle
         id="circle5501"
         r="0.45"
         cy="6.296"
         cx="3.379"
         style="fill:black;stroke:none" />
      <circle
         id="circle5503"
         r="0.45"
         cy="8.204"
         cx="2.871"
         style="fill:black;stroke:none" />
      <circle
         id="circle5505"
         r="0.45"
         cy="8.719"
         cx="4.59"
         style="fill:black;stroke:none" />
      <circle
         id="circle5507"
         r="0.45"
         cy="9.671"
         cx="3.181"
         style="fill:black;stroke:none" />
      <circle
         id="circle5509"
         r="0.45"
         cy="7.315"
         cx="5.734"
         style="fill:black;stroke:none" />
      <circle
         id="circle5511"
         r="0.45"
         cy="6.513"
         cx="6.707"
         style="fill:black;stroke:none" />
      <circle
         id="circle5513"
         r="0.45"
         cy="9.670"
         cx="5.730"
         style="fill:black;stroke:none" />
      <circle
         id="circle5515"
         r="0.45"
         cy="8.373"
         cx="6.535"
         style="fill:black;stroke:none" />
      <circle
         id="circle5517"
         r="0.45"
         cy="7.154"
         cx="4.37"
         style="fill:black;stroke:none" />
      <circle
         id="circle5519"
         r="0.45"
         cy="7.25"
         cx="0.622"
         style="fill:black;stroke:none" />
      <circle
         id="circle5521"
         r="0.45"
         cy="5.679"
         cx="0.831"
         style="fill:black;stroke:none" />
      <circle
         id="circle5523"
         r="0.45"
         cy="8.519"
         cx="1.257"
         style="fill:black;stroke:none" />
      <circle
         id="circle5525"
         r="0.45"
         cy="6.877"
         cx="1.989"
         style="fill:black;stroke:none" />
      <circle
         id="circle5527"
         r="0.45"
         cy="3.181"
         cx="0.374"
         style="fill:black;stroke:none" />
      <circle
         id="circle5529"
         r="0.45"
         cy="1.664"
         cx="1.166"
         style="fill:black;stroke:none" />
      <circle
         id="circle5531"
         r="0.45"
         cy="0.093"
         cx="1.151"
         style="fill:black;stroke:none" />
      <circle
         id="circle5533"
         r="0.45"
         cy="10.093"
         cx="1.151"
         style="fill:black;stroke:none" />
      <circle
         id="circle5535"
         r="0.45"
         cy="4.451"
         cx="1.302"
         style="fill:black;stroke:none" />
      <circle
         id="circle5537"
         r="0.45"
         cy="3.763"
         cx="3.047"
         style="fill:black;stroke:none" />
    </pattern>
  </defs>
  <sodipodi:namedview
     id="base"
     pagecolor="#ffffff"
     bordercolor="#666666"
     borderopacity="1.0"
     inkscape:pageopacity="0.0"
     inkscape:pageshadow="2"
     inkscape:zoom="1.4142136"
     inkscape:cx="56.234371"
     inkscape:cy="69.134433"
     inkscape:document-units="mm"
     inkscape:current-layer="layer1"
     showgrid="false"
     inkscape:window-width="1467"
     inkscape:window-height="1022"
     inkscape:window-x="341"
     inkscape:window-y="108"
     inkscape:window-maximized="0"
     inkscape:snap-global="false" />
  <metadata
     id="metadata7">
    <rdf:RDF>
      <cc:Work
         rdf:about="">
        <dc:format>image/svg+xml</dc:format>
        <dc:type
           rdf:resource="http://purl.org/dc/dcmitype/StillImage" />
        <dc:title>rocket - lineart</dc:title>
        <dc:date>2015-03-10</dc:date>
        <dc:creator>
          <cc:Agent>
            <dc:title>Frank Tremmel</dc:title>
          </cc:Agent>
        </dc:creator>
        <dc:subject>
          <rdf:Bag>
            <rdf:li>rocket</rdf:li>
            <rdf:li>vehicle</rdf:li>
            <rdf:li>rakete</rdf:li>
            <rdf:li>fahrzeug</rdf:li>
            <rdf:li>line art</rdf:li>
            <rdf:li>outline</rdf:li>
          </rdf:Bag>
        </dc:subject>
        <dc:description>line art rocket</dc:description>
        <cc:license
           rdf:resource="http://creativecommons.org/publicdomain/zero/1.0/" />
      </cc:Work>
      <cc:License
         rdf:about="http://creativecommons.org/publicdomain/zero/1.0/">
        <cc:permits
           rdf:resource="http://creativecommons.org/ns#Reproduction" />
        <cc:permits
           rdf:resource="http://creativecommons.org/ns#Distribution" />
        <cc:permits
           rdf:resource="http://creativecommons.org/ns#DerivativeWorks" />
      </cc:License>
    </rdf:RDF>
  </metadata>
  <g
     inkscape:label="Ebene 1"
     inkscape:groupmode="layer"
     id="layer1"
     transform="translate(0,-946.06299)">
    <path
       style="fill:#ffffff;fill-rule:evenodd;stroke:#0000ff;stroke-width:0.35433072;stroke-linecap:butt;stroke-linejoin:miter;stroke-miterlimit:4;stroke-dasharray:none;stroke-opacity:1;fill-opacity:1"
       d="m 45.633089,988.68539 -14.566168,-2.24094 17.740846,-14.93967 12.885457,0.74699 18.114338,-18.86133 22.596238,-2.61443 c -0.52062,11.12556 -1.83919,15.06959 -2.801188,22.22273 l -19.421559,18.86133 1.493966,13.81923 -18.86132,18.301 0.560237,-16.6203 -5.975864,-2.4277 -0.746983,5.2288 -1.120475,0.5603 -0.746983,4.1084 -1.680711,-0.5603 -0.746984,3.735 c -3.402412,-0.3932 -6.807723,-4.1537 -11.017999,-7.8434 -1.057798,-0.6063 -1.970835,-1.558 -2.771775,-2.6658 -1.325788,-1.8337 -2.344434,-4.0949 -3.204089,-5.9245 l 1.493966,-1.68068 2.240948,0 0,-1.86739 4.108408,-0.18677 -0.560237,-1.49399 5.042134,-1.86747 z"
       id="path4267"
       inkscape:connector-curvature="0"
       sodipodi:nodetypes="ccccccccccccccccccscccccccc" />
    <path
       style="fill:#ffffff;fill-rule:evenodd;stroke:#00ffff;stroke-width:0.35433072;stroke-linecap:butt;stroke-linejoin:miter;stroke-miterlimit:4;stroke-dasharray:none;stroke-opacity:1;fill-opacity:1"
       d="m 35.92231,1002.6914 c -5.862452,1.4288 -10.47445,2.937 -14.192677,6.1625 -5.439799,7.8722 -7.557289,13.8276 -10.084271,20.7288 l -1.8674572,11.5783 c 3.0584642,0.7221 6.5335192,0.1945 10.0842712,-0.5603 6.147648,-2.4052 11.079298,-2.9866 19.981795,-9.5241 2.683199,-2.0314 5.550732,-3.4176 7.283084,-8.777 0.469569,-2.2693 1.114324,-4.3635 1.120475,-7.0963 -5.327131,-2.3145 -9.439701,-5.9883 -12.32522,-12.5119 z"
       id="path4269"
       inkscape:connector-curvature="0"
       sodipodi:nodetypes="ccccccccc" />
    <path
       style="fill:url(#pattern5947);fill-opacity:1;fill-rule:evenodd;stroke:#0000ff;stroke-width:0.35433072;stroke-linecap:butt;stroke-linejoin:miter;stroke-miterlimit:4;stroke-dasharray:none;stroke-opacity:1"
       d="m 82.625,968.7372 c -1.804984,-1.47926 -5.526714,-2.20049 -7.125,-0.5 -1.942354,2.06656 -2.268035,6.65747 -0.5,8.875 1.859,2.33163 6.54984,4.01287 8.75,2 2.749662,-2.5156 1.757446,-8.01271 -1.125,-10.375 z"
       id="path4274"
       inkscape:connector-curvature="0"
       sodipodi:nodetypes="sssss" />
    <path
       style="fill:url(#pattern5855);fill-opacity:1;fill-rule:evenodd;stroke:#008080;stroke-width:0.35433072;stroke-linecap:butt;stroke-linejoin:miter;stroke-miterlimit:4;stroke-dasharray:none;stroke-opacity:1"
       d="m 74.375,968.4872 c 0,0 -4.768729,5.02458 -1.375,9.75 3.950444,5.50059 10.25,1.75 10.25,1.75 0,0 -4.784963,1.24856 -8.375,-3 -1.831877,-2.1679 -0.5,-8.5 -0.5,-8.5 z"
       id="path4276"
       inkscape:connector-curvature="0"
       sodipodi:nodetypes="cscsc" />
    <path
       style="fill:url(#pattern6039);fill-opacity:1;fill-rule:evenodd;stroke:#0000ff;stroke-width:0.35433072;stroke-linecap:butt;stroke-linejoin:miter;stroke-miterlimit:4;stroke-dasharray:none;stroke-opacity:1"
       d="m 79.903066,953.36725 22.627414,-2.82843 c -0.72457,8.15573 -1.81265,15.58442 -3.0052,22.8042 0,0 -9.506136,-4.97731 -13.081476,-8.83884 -2.671475,-2.88531 -6.540738,-11.13693 -6.540738,-11.13693 z"
       id="path4278"
       inkscape:connector-curvature="0"
       sodipodi:nodetypes="cccsc" />
    <path
       style="fill:url(#pattern5761);fill-opacity:1;fill-rule:evenodd;stroke:#0000ff;stroke-width:0.35433072;stroke-linecap:butt;stroke-linejoin:miter;stroke-miterlimit:4;stroke-dasharray:none;stroke-opacity:1"
       d="m 49.23231,995.17494 -7.336233,0.88388 0.618718,1.76777 -3.447145,0.53033 -0.176777,1.59099 -3.712311,0.70709 c 0,0 3.199803,6.3953 5.568466,9.0156 2.987497,3.3049 10.606602,8.1318 10.606602,8.1318 l 1.679379,-0.8839 0.53033,-3.0052 1.414213,0.6187 0.618719,-3.8891 1.502602,-0.088 0.441941,-5.3917 -4.507805,-3.3587 -12.993087,4.5962 -1.237437,-1.1491 z"
       id="path4280"
       inkscape:connector-curvature="0"
       sodipodi:nodetypes="ccccccsccccccccccc" />
    <path
       style="color:#000000;font-style:normal;font-variant:normal;font-weight:normal;font-stretch:normal;font-size:medium;line-height:normal;font-family:sans-serif;text-indent:0;text-align:start;text-decoration:none;text-decoration-line:none;text-decoration-style:solid;text-decoration-color:#000000;letter-spacing:normal;word-spacing:normal;text-transform:none;direction:ltr;block-progression:tb;writing-mode:lr-tb;baseline-shift:baseline;text-anchor:start;white-space:normal;clip-rule:nonzero;display:inline;overflow:visible;visibility:visible;opacity:1;isolation:auto;mix-blend-mode:normal;color-interpolation:sRGB;color-interpolation-filters:linearRGB;solid-color:#000000;solid-opacity:1;fill:#000000;fill-opacity:1;fill-rule:evenodd;stroke:none;stroke-width:2.83464575;stroke-linecap:butt;stroke-linejoin:miter;stroke-miterlimit:4;stroke-dasharray:none;stroke-dashoffset:0;stroke-opacity:1;marker:none;color-rendering:auto;image-rendering:auto;shape-rendering:auto;text-rendering:auto;enable-background:accumulate"
       d="M 103.47461,3.5820312 C 95.451321,4.4766613 87.20441,5.3834369 79.654297,6.2167969 73.501271,12.636187 66.598229,19.251765 60.158203,25.640625 56.481907,25.248435 52.434641,25.041417 48.628906,24.779297 L 28.75,41.085938 44.021484,43.265625 c 0.04517,0.61554 0.200961,1.211238 0.421875,1.830078 0.377619,1.0578 0.951065,2.185091 1.634766,3.332031 -1.428457,0.15233 -2.856543,0.274923 -4.248047,0.601563 -0.23535,0.12922 -0.503732,0.322147 -0.716797,0.654297 -0.149902,0.23367 -0.159344,0.53142 -0.185547,0.8125 -0.860895,-0.0238 -1.654629,0.130577 -2.416015,0.435547 -0.271184,0.17146 -0.578364,0.737785 -0.695313,1.259765 -2.237253,0.33842 -1.614224,0.220444 -2.238281,0.339844 l -0.791016,0.425781 c -0.501674,0.51689 -0.622875,1.198832 -0.601562,1.707031 0.02942,0.6631 0.25471,1.164638 0.455078,1.710938 -2.263373,0.6541 -4.656846,1.265812 -6.871094,2.007812 -2.628545,0.8809 -4.826623,2.086344 -6.455078,3.714844 0,0 -0.0087,0.0098 -0.01172,0.0098 -0.0032,0 -0.0078,0.01172 -0.0078,0.01172 -7.278552,10.9365 -11.076979,21.650078 -12.4375001,33.017578 l -0.1132813,0.957031 0.9589844,0.08789 c 13.16936,1.1895 24.991584,-6.605125 32.080078,-11.578125 7.088495,-4.973 6.097908,-10.553422 7.050781,-12.982422 1.414912,0.8112 0.988987,0.616347 1.414063,0.810547 0.425076,0.1942 0.834119,0.348943 1.335937,0.402343 0.501819,0.054 1.249266,-0.03989 1.78125,-0.58789 l 0.382813,-0.699219 0.466797,-1.96875 c 0.58552,0.1381 0.888998,-0.03866 1.259765,-0.443359 0.140848,-0.2776 0.253848,-0.887729 0.296875,-1.111328 0,0 0.387319,-1.716547 0.371094,-2.623047 0.449554,-0.025 0.941843,-0.171813 1.259766,-0.445313 0,0 0.509765,-0.564744 0.509765,-0.964844 l 0.365235,-3.208984 c 1.430251,0.8102 3.002874,1.589009 4.378906,1.974609 L 62.025391,80.150391 82.537109,59.642578 81.626953,46.357422 c 6.388153,-6.29915 13.181364,-13.084481 19.294927,-19.332031 z m -2.25586,2.3203126 c 0,0 1.08472,6.6835802 -1.17383,9.8378902 -2.065076,2.88412 -1.310545,10.1875 -1.310545,10.1875 -0.773742,-0.34454 -2.812612,-1.620168 -3.933594,-2.298828 -2.399597,-1.45273 -5.15778,-3.462883 -6.554687,-4.871094 -1.407072,-1.41844 -3.415356,-4.172169 -4.857422,-6.568359 -0.683071,-1.13502 -1.027371,-1.420099 -1.357422,-2.1933592 z M 80.578125,10.650391 c 0.403422,0.86558 0.429901,1.147946 1.039063,2.160156 1.543755,2.56517 3.550437,5.374239 5.292968,7.130859 1.752695,1.76687 4.570357,3.772116 7.13086,5.322266 1.063639,0.64394 2.885382,1.542394 3.773437,1.958984 L 63.734375,59.892578 c -3.588926,-0.829934 -7.00123,-3.117559 -9.39794,-5.310969 -2.804037,1.0401 -9.156593,3.282216 -11.015089,4.121516 l 17.393498,-15.919922 5.27539,-2.835937 1.203125,-0.990235 -2.316406,-2.298828 -6.398437,3.591797 -8.914063,8.064453 c -1.307691,-1.36223 -2.134825,-3.236606 -2.378906,-4.228515 5.859416,-5.21173 12.080774,-11.861787 17.294922,-18.566407 4.961461,-6.3797 11.536751,-12.58641 16.097656,-14.86914 z m -2.128906,9.814453 c -2.009554,-0.0785 -4.003084,0.60687 -5.501953,2.09375 -2.997746,2.97373 -2.807715,7.958109 0.308593,11.099609 3.116308,3.1415 8.096005,3.370214 11.09375,0.396485 2.997745,-2.973741 2.809668,-7.9581 -0.30664,-11.09961 -1.558155,-1.57075 -3.584197,-2.411774 -5.59375,-2.490234 z m -0.04492,1.859375 c 1.527248,0.0636 3.083735,0.712489 4.310547,1.949219 2.314111,2.332819 2.522663,5.817423 0.671875,8.058593 -0.973517,0.61387 -2.100158,0.953472 -3.302735,0.894531 -3.300927,-0.161809 -5.864691,-3.176555 -5.6875,-6.791015 0.0639,-1.30356 0.483747,-2.49081 1.140625,-3.474609 0.877236,-0.46227 1.864156,-0.678479 2.867188,-0.636719 z m -4.822266,2.40039 c -0.140199,0.53394 -0.245241,1.083053 -0.273437,1.658203 -0.196342,4.00515 2.569134,7.461672 6.283203,7.888672 -1.741303,0.13403 -3.590887,-0.50523 -5.005859,-1.93164 -2.166685,-2.1842 -2.490337,-5.377315 -1.003907,-7.615235 z m -24.539062,1.75586 10.990234,0.724609 -14.396484,14.158203 -12.316407,-1.61914 z m 16.017578,11.33789 0.807636,0.818857 -5.940449,3.163565 C 53.467228,47.921441 46.887093,53.907267 40.369141,59.966797 L 39.6875,59.195312 C 46.401418,52.446513 52.134412,47.366557 59.332031,41.029297 Z m 14.720703,9.328125 1.095703,12.050782 -16.886719,16.464843 0.589844,-14.007812 c 4.377448,-3.9622 10.723083,-10.065623 15.201172,-14.507813 z m -32.847619,3.378907 -2.120135,2.03324 c -1.319287,-0.736672 -1.513917,-1.473344 -1.680223,-2.210017 1.534097,0.142853 2.502771,0.291789 3.800358,0.176777 z m -6.367225,2.683593 c 0,0 3.124678,0.433663 3.400391,0.414063 l -1.824219,1.619141 c -0.783826,-0.4594 -1.5728,-1.762114 -1.576172,-2.033204 z m -0.40625,1.492188 c 0.135522,0.243 0.88931,1.213925 1.066406,1.515625 l -2.507849,2.57035 C 37.797233,58.170848 37.04271,56.046695 36.989701,55.136221 Z m 12.501953,1.876953 c 0.850517,0.7612 3.118151,2.562453 4.126953,3.314453 -0.138216,1.4894 -0.485548,2.328291 -0.74414,3.837891 -2.393302,-1.4991 -5.939422,-3.977466 -7.560547,-5.759766 z m -17.38672,0.953125 c 0.176755,0.2901 0.605842,1.106956 0.808593,1.410156 0.206665,0.309 0.648494,1.098969 0.878907,1.417969 -2.533127,0.1225 -5.216822,0.282678 -7.38086,1.205078 -2.744378,1.1697 -4.987441,2.771541 -6.154297,4.619141 -3.513839,5.564 -6.197076,9.371368 -8.291015,16.542968 -0.835334,2.861001 -1.305676,3.875079 -0.923828,7.392579 2.930848,-10.832 6.093694,-15.977407 10.53125,-23.003907 0.828009,-1.3111 2.872369,-3.231775 5.371093,-4.296875 2.356034,-1.0043 5.027883,-1.555243 7.740235,-1.464843 0.208133,0.2559 1.084644,1.374206 1.300781,1.628906 -0.869932,0.3838 -2.428731,0.474169 -4.044922,1.292969 -2.596809,1.3156 -5.599163,2.996412 -7.398437,4.757812 -1.891559,1.8517 -4.284674,5.191619 -5.902344,8.199219 -1.617627,3.0076 -2.53711,7.128906 -2.537109,7.128906 1.550076,-2.7551 2.969955,-5.350544 3.986328,-6.777344 1.943383,-2.7281 4.249145,-5.732243 5.763672,-7.214843 1.461126,-1.4304 4.403307,-3.143782 6.933593,-4.425782 2.078123,-1.0529 3.184626,-1.972903 3.763672,-2.220703 0.399639,0.4346 1.53599,1.531906 1.941406,1.941406 -0.224756,0.5518 -1.198041,1.702532 -2.232421,3.832032 -1.239343,2.5515 -2.902939,5.521059 -4.308594,7.005859 -1.379667,1.4574 -5.648163,4.347931 -9.429688,6.394531 -2.893683,1.566 -4.8164,2.435657 -7.417968,3.472657 0,0 4.32898,-0.285891 8.205078,-2.275391 3.876098,-1.9895 8.104825,-4.300588 10.001953,-6.304688 1.730955,-1.828499 3.360931,-4.856109 4.632812,-7.474609 0.747315,-1.5386 0.812878,-3.154369 1.189453,-4.042969 0.179241,0.1703 1.695369,1.536379 1.876954,1.705078 -0.510895,2.256301 -0.582925,3.614107 -1.251954,5.753907 -0.753662,2.4104 -2.455861,4.498837 -3.972656,5.585937 -7.953833,5.7007 -17.782825,10.273275 -25.792969,13.234375 3.093624,0.6121 7.331112,-1.095609 9.212891,-1.849609 5.985232,-2.3984 11.622877,-5.532635 17.667969,-9.865234 2.022805,-1.449801 3.371342,-3.886575 4.203125,-6.546876 0.554573,-1.773699 0.519907,-3.84919 0.601562,-5.65039 0.726354,0.6213 2.243743,1.876431 2.931641,2.394531 -1.58123,5.5443 -2.063517,8.940606 -6.787109,12.253906 -8.944184,6.2739 -18.207613,11.740729 -30.109376,11.048829 1.39782,-10.8065 4.366154,-21.295694 11.884766,-31.058594 0.993489,-1.29 2.826051,-2.680331 5.330078,-3.519532 2.223145,-0.745 4.753788,-1.512162 7.177735,-2.226562 z m 12.207031,0.775391 c 1.634663,1.9201 5.203364,4.506562 7.361328,5.726562 l -0.568359,3.066406 c -1.82058,-1.0624 -7.243292,-4.990362 -9.769532,-7.601562 z m -4.066406,1.644531 c 2.408367,2.6951 6.100064,5.628159 9.283203,7.443359 l -0.609375,3.035157 c -0.238386,0.3337 -8.630699,-4.792042 -11.787185,-9.544425 z m -6.214844,6.878906 c -0.856689,0.144832 -5.851914,3.317891 -7.080078,4.701172 -0.862885,0.9719 -2.110428,2.795588 -3.199219,4.429688 -1.088791,1.634 -1.984375,3.048828 -1.984375,3.048828 l -1.791016,2.832031 3,-1.494141 c 0,0 1.426054,-0.711625 3.095704,-1.640625 1.669647,-0.929 3.556761,-2.033497 4.660156,-3.029297 1.545287,-1.3947 5.84843,-9.076778 4.30664,-6.955078 -1.830553,2.5192 -3.866388,4.305853 -5.5625,5.564453 -0.827328,0.614 -4.559842,3.655069 -6.140625,4.542969 1.069052,-1.6028 4.429378,-5.244487 5.015625,-6.054687 0.942293,-1.3023 3.316818,-3.252107 5.515625,-5.503907 0.340216,-0.348412 0.36176,-0.474829 0.164063,-0.441406 z"
       transform="translate(0,946.06299)"
       id="rect4157"
       inkscape:connector-curvature="0"
       sodipodi:nodetypes="ccccccsccccccccccccsccccscscccccccccccccccccscssscccssscccccccccccsccsssscsscsscscscscccccccccccccccccccccccccccccccccccccccccscssccssscscsccscccsccccssccssccsccccccccccccccscccccscccccss" />
  </g>
</svg>
