<svg id="Layer_3" enable-background="new 0 0 64 64" height="512" viewBox="0 0 64 64" width="512" xmlns="http://www.w3.org/2000/svg"><g fill="#a1cdfb"><circle cx="5" cy="5" r="3"/><circle cx="59" cy="5" r="3"/><circle cx="59" cy="59" r="3"/></g><path d="m14 62h32v-26c0-1.105-.895-2-2-2h-20c-5.523 0-10 4.477-10 10z" fill="#b8b9b3"/><path d="m14 44h8v8h-8z" fill="#e47c6e" transform="matrix(-1 0 0 -1 36 96)"/><path d="m32 40c3.314 0 6 2.686 6 6v16h-12v-16c0-3.314 2.686-6 6-6z" fill="#8892a0"/><path d="m30 48h4v4h-4z" fill="#e47c6e" transform="matrix(-1 0 0 -1 64 100)"/><path d="m20 30h24v4h-24z" fill="#8892a0" transform="matrix(-1 0 0 -1 64 64)"/><path d="m39.488 30c4.49-2.592 7.512-7.443 7.512-13 0-8.284-6.716-15-15-15s-15 6.716-15 15c0 5.557 3.022 10.408 7.512 13" fill="#b8b9b3"/><path d="m30 15-8.078-9.087c-3.016 2.743-4.922 6.688-4.922 11.087 0 2.103.434 4.105 1.216 5.922l10.784-3.922z" fill="#c7e2fc"/><path d="m26.862 11.469-4.939-5.557c-3.017 2.744-4.923 6.689-4.923 11.088 0 .503.028 1 .077 1.49 4.175-1.031 7.679-3.594 9.785-7.021z" fill="#ebf7fe"/><circle cx="32" cy="17" fill="#8892a0" r="3"/><path d="m39.988 30.866-1-1.732c4.325-2.497 7.012-7.146 7.012-12.134 0-7.72-6.28-14-14-14s-14 6.28-14 14c0 4.988 2.687 9.637 7.012 12.134l-1 1.732c-4.942-2.853-8.012-8.166-8.012-13.866 0-8.822 7.178-16 16-16s16 7.178 16 16c0 5.7-3.07 11.013-8.012 13.866z"/><path d="m44 35h-24c-.552 0-1-.448-1-1v-4c0-.552.448-1 1-1h24c.552 0 1 .448 1 1v4c0 .552-.448 1-1 1zm-23-2h22v-2h-22z"/><path d="m32 21c-2.206 0-4-1.794-4-4s1.794-4 4-4 4 1.794 4 4-1.794 4-4 4zm0-6c-1.103 0-2 .897-2 2s.897 2 2 2 2-.897 2-2-.897-2-2-2z"/><path d="m25 4.479h2v12.042h-2z" transform="matrix(.747 -.664 .664 .747 -.409 19.926)"/><path d="m17.648 20h11.705v2h-11.705z" transform="matrix(.94 -.342 .342 .94 -5.762 9.295)"/><path d="m33 14h-2v-7c0-.552.448-1 1-1h3v2h-2z"/><path d="m46 63h-32c-.552 0-1-.448-1-1v-18c0-6.065 4.935-11 11-11h20c1.654 0 3 1.346 3 3v26c0 .552-.448 1-1 1zm-31-2h30v-25c0-.551-.449-1-1-1h-20c-4.962 0-9 4.038-9 9z"/><path d="m38 63h-12c-.552 0-1-.448-1-1v-16c0-3.86 3.14-7 7-7s7 3.14 7 7v16c0 .552-.448 1-1 1zm-11-2h10v-15c0-2.757-2.243-5-5-5s-5 2.243-5 5z"/><path d="m34 53h-4c-.552 0-1-.448-1-1v-4c0-.552.448-1 1-1h4c.552 0 1 .448 1 1v4c0 .552-.448 1-1 1zm-3-2h2v-2h-2z"/><path d="m22 53h-8c-.552 0-1-.448-1-1v-8c0-.552.448-1 1-1h8c.552 0 1 .448 1 1v8c0 .552-.448 1-1 1zm-7-2h6v-6h-6z"/><path d="m5 9c-2.206 0-4-1.794-4-4s1.794-4 4-4 4 1.794 4 4-1.794 4-4 4zm0-6c-1.103 0-2 .897-2 2s.897 2 2 2 2-.897 2-2-.897-2-2-2z"/><path d="m5 15h2v2h-2z"/><path d="m1 15h2v2h-2z"/><path d="m3 13h2v2h-2z"/><path d="m3 17h2v2h-2z"/><path d="m13 32h2v2h-2z"/><path d="m9 32h2v2h-2z"/><path d="m11 30h2v2h-2z"/><path d="m11 34h2v2h-2z"/><path d="m5 50h6v2h-6z"/><path d="m7 48h2v6h-2z"/><path d="m61 20h2v2h-2z"/><path d="m57 20h2v2h-2z"/><path d="m59 18h2v2h-2z"/><path d="m59 22h2v2h-2z"/><path d="m49 36h6v2h-6z"/><path d="m51 34h2v6h-2z"/><path d="m59 9c-2.206 0-4-1.794-4-4s1.794-4 4-4 4 1.794 4 4-1.794 4-4 4zm0-6c-1.103 0-2 .897-2 2s.897 2 2 2 2-.897 2-2-.897-2-2-2z"/><path d="m59 63c-2.206 0-4-1.794-4-4s1.794-4 4-4 4 1.794 4 4-1.794 4-4 4zm0-6c-1.103 0-2 .897-2 2s.897 2 2 2 2-.897 2-2-.897-2-2-2z"/></svg>